<svg width="1200" height="630" viewBox="0 0 1200 630" fill="none" xmlns="http://www.w3.org/2000/svg">
  <defs>
    <linearGradient id="bg" x1="120" y1="40" x2="1100" y2="630" gradientUnits="userSpaceOnUse">
      <stop stop-color="#10131E"/>
      <stop offset="0.45" stop-color="#090B11"/>
      <stop offset="1" stop-color="#040506"/>
    </linearGradient>
    <linearGradient id="leftGlow" x1="150" y1="120" x2="540" y2="520" gradientUnits="userSpaceOnUse">
      <stop stop-color="#FFB46B" stop-opacity="0.85"/>
      <stop offset="1" stop-color="#FF6A3D" stop-opacity="0.08"/>
    </linearGradient>
    <linearGradient id="rightGlow" x1="640" y1="110" x2="1040" y2="500" gradientUnits="userSpaceOnUse">
      <stop stop-color="#77F6FF" stop-opacity="0.8"/>
      <stop offset="1" stop-color="#2BD3A1" stop-opacity="0.08"/>
    </linearGradient>
    <linearGradient id="divider" x1="590" y1="40" x2="615" y2="590" gradientUnits="userSpaceOnUse">
      <stop stop-color="#FFE0A8" stop-opacity="0.88"/>
      <stop offset="1" stop-color="#7CF5FF" stop-opacity="0.82"/>
    </linearGradient>
    <filter id="softBlur" x="-40%" y="-40%" width="180%" height="180%">
      <feGaussianBlur stdDeviation="42"/>
    </filter>
    <filter id="panelShadow" x="-20%" y="-20%" width="140%" height="140%">
      <feDropShadow dx="0" dy="18" stdDeviation="20" flood-color="#000000" flood-opacity="0.45"/>
    </filter>
  </defs>

  <rect width="1200" height="630" fill="url(#bg)"/>
  <rect x="0" y="0" width="1200" height="630" fill="#06070C" fill-opacity="0.18"/>

  <ellipse cx="330" cy="214" rx="240" ry="170" fill="url(#leftGlow)" filter="url(#softBlur)"/>
  <ellipse cx="884" cy="218" rx="250" ry="180" fill="url(#rightGlow)" filter="url(#softBlur)"/>

  <g opacity="0.58">
    <path d="M604 68L538 566" stroke="url(#divider)" stroke-width="4"/>
    <path d="M620 54L552 580" stroke="url(#divider)" stroke-width="1.5" stroke-opacity="0.55"/>
  </g>

  <g filter="url(#panelShadow)">
    <rect x="86" y="90" width="430" height="236" rx="22" fill="#0C1018" stroke="#6A4A2C" stroke-opacity="0.65"/>
    <rect x="684" y="90" width="430" height="236" rx="22" fill="#0B1117" stroke="#204D52" stroke-opacity="0.75"/>
    <rect x="120" y="356" width="968" height="178" rx="28" fill="#0B0E14" fill-opacity="0.96" stroke="#232A39"/>
  </g>

  <g opacity="0.9">
    <rect x="118" y="124" width="146" height="16" rx="8" fill="#FB9B55"/>
    <rect x="118" y="150" width="212" height="10" rx="5" fill="#7D858F" fill-opacity="0.45"/>
    <rect x="118" y="182" width="364" height="108" rx="14" fill="#101723" stroke="#73513A"/>
    <rect x="138" y="198" width="90" height="74" rx="10" fill="#E07A43" fill-opacity="0.75"/>
    <rect x="234" y="198" width="54" height="74" rx="10" fill="#7A503C" fill-opacity="0.85"/>
    <rect x="294" y="198" width="142" height="34" rx="10" fill="#FFB067" fill-opacity="0.65"/>
    <rect x="294" y="238" width="72" height="34" rx="10" fill="#A66548" fill-opacity="0.85"/>
    <rect x="372" y="238" width="64" height="34" rx="10" fill="#5E4438" fill-opacity="0.95"/>
    <path d="M140 305H462" stroke="#A16C4E" stroke-opacity="0.45" stroke-width="2"/>
    <circle cx="252" cy="305" r="7" fill="#FFD6A8"/>
    <circle cx="312" cy="305" r="7" fill="#FFD6A8"/>
    <circle cx="392" cy="305" r="7" fill="#FFD6A8"/>
  </g>

  <g opacity="0.95">
    <rect x="716" y="124" width="126" height="16" rx="8" fill="#64EFFF"/>
    <rect x="716" y="150" width="184" height="10" rx="5" fill="#7D858F" fill-opacity="0.45"/>
    <rect x="716" y="182" width="364" height="108" rx="14" fill="#0F1822" stroke="#2A6B67"/>
    <rect x="736" y="198" width="86" height="74" rx="10" fill="#0E7F80" fill-opacity="0.92"/>
    <rect x="828" y="198" width="112" height="74" rx="10" fill="#38C9B1" fill-opacity="0.9"/>
    <rect x="946" y="198" width="112" height="34" rx="10" fill="#6EE8FF" fill-opacity="0.95"/>
    <rect x="946" y="238" width="52" height="34" rx="10" fill="#2E988A" fill-opacity="0.92"/>
    <rect x="1004" y="238" width="54" height="34" rx="10" fill="#1C5F5F" fill-opacity="0.95"/>
    <path d="M738 305H1060" stroke="#78FFF1" stroke-opacity="0.42" stroke-width="2"/>
    <circle cx="830" cy="305" r="7" fill="#C8FFF9"/>
    <circle cx="906" cy="305" r="7" fill="#C8FFF9"/>
    <circle cx="1004" cy="305" r="7" fill="#C8FFF9"/>
  </g>

  <g opacity="0.82">
    <rect x="118" y="550" width="12" height="12" rx="2" fill="#4BF9D2"/>
    <rect x="134" y="550" width="12" height="12" rx="2" fill="#E6E94D"/>
    <rect x="126" y="538" width="12" height="12" rx="2" fill="#49A6FF"/>
    <rect x="126" y="562" width="12" height="12" rx="2" fill="#FF6E5B"/>
  </g>

  <g opacity="0.95">
    <rect x="170" y="400" width="420" height="90" rx="18" fill="#0E1420" stroke="#44362E"/>
    <rect x="610" y="400" width="420" height="90" rx="18" fill="#0E1420" stroke="#223E43"/>
    <rect x="200" y="428" width="160" height="12" rx="6" fill="#E58D50"/>
    <rect x="200" y="450" width="120" height="12" rx="6" fill="#71584A"/>
    <rect x="378" y="428" width="96" height="34" rx="10" fill="#AF6844"/>
    <rect x="486" y="428" width="72" height="34" rx="10" fill="#6E5144"/>
    <rect x="640" y="428" width="160" height="12" rx="6" fill="#63DBEE"/>
    <rect x="640" y="450" width="120" height="12" rx="6" fill="#467C7C"/>
    <rect x="818" y="428" width="96" height="34" rx="10" fill="#37B6A8"/>
    <rect x="926" y="428" width="72" height="34" rx="10" fill="#285C60"/>
    <circle cx="560" cy="445" r="8" fill="#F5D6AB"/>
    <circle cx="640" cy="445" r="8" fill="#C6FFFB"/>
  </g>
</svg>
