<svg xmlns="http://www.w3.org/2000/svg" viewBox="0 0 16 16" width="16" height="16">
  <!-- Warm-ink panel background (hsl(30 12% 7%)). -->
  <rect width="16" height="16" fill="#14110E"/>
  <!-- Phosphor amber 5x5 "A" glyph, 2x2-cell pixels on a centered 10x10 grid.
       Pattern mirrors components/Logo.astro glyph variant. -->
  <g fill="#FBA237">
    <!-- Row 0: .###. -->
    <rect x="5" y="3" width="2" height="2"/>
    <rect x="7" y="3" width="2" height="2"/>
    <rect x="9" y="3" width="2" height="2"/>
    <!-- Row 1: #...# -->
    <rect x="3" y="5" width="2" height="2"/>
    <rect x="11" y="5" width="2" height="2"/>
    <!-- Row 2: ##### (crossbar) -->
    <rect x="3" y="7" width="2" height="2"/>
    <rect x="5" y="7" width="2" height="2"/>
    <rect x="7" y="7" width="2" height="2"/>
    <rect x="9" y="7" width="2" height="2"/>
    <rect x="11" y="7" width="2" height="2"/>
    <!-- Row 3: #...# -->
    <rect x="3" y="9" width="2" height="2"/>
    <rect x="11" y="9" width="2" height="2"/>
    <!-- Row 4: #...# (bottom legs) -->
    <rect x="3" y="11" width="2" height="2"/>
    <rect x="11" y="11" width="2" height="2"/>
  </g>
</svg>
